<svg width="583" height="332" viewBox="0 0 583 332" fill="none" xmlns="http://www.w3.org/2000/svg">
<path d="M10.837 11.046C10.837 11.046 10.837 150.849 10.837 203.393C10.837 255.936 52.1212 321.615 134.689 321.615C183.48 321.615 212.566 291.59 212.566 291.59C212.566 291.59 239.776 321.615 291.382 321.615C363.629 321.615 403.975 244.677 403.975 244.677H494.987V321.615M53.9977 11.046C53.9977 11.046 53.9977 164.923 53.9977 203.393C53.9977 241.862 85.8991 280.331 134.689 280.331C185.356 280.331 212.566 230.603 212.566 224.035M212.566 224.035C212.566 140.857 212.566 94.2232 212.566 11.046M212.566 224.035C212.566 224.035 235.085 280.331 291.382 280.331C356.123 280.331 367.382 209.022 367.382 209.022M367.382 209.022H535.333M367.382 209.022C367.382 209.022 367.382 170.553 367.382 129.269C367.382 87.9846 400.221 50.4536 449.95 50.4536C499.679 50.4536 535.333 84.2315 535.333 129.269C535.333 174.306 535.333 209.022 535.333 209.022M535.333 209.022V321.615M92.467 11.046C92.467 11.046 92.467 173.368 92.467 194.01C92.467 214.652 100.912 241.862 134.689 241.862C168.467 241.862 171.282 211.837 171.282 194.01C171.282 176.183 171.282 11.046 171.282 11.046M251.036 11.046C251.036 11.046 251.036 173.368 251.036 194.01C251.036 214.652 258.542 241.862 289.505 241.862C320.468 241.862 325.159 214.652 325.159 194.01C325.159 194.01 325.159 200.578 325.159 129.269C325.159 57.9598 382.394 11.046 449.95 11.046C517.506 11.046 571.926 54.2067 571.926 129.269C571.926 204.331 571.926 321.615 571.926 321.615M406.789 170.553H494.987C494.987 170.553 494.987 158.355 494.987 129.269C494.987 100.182 468.716 87.9846 449.95 87.9846C431.185 87.9846 406.789 102.059 406.789 129.269C406.789 156.479 406.789 170.553 406.789 170.553Z" stroke="#FCEDC2" stroke-width="20.6421"/>
</svg>
